<svg width="1512" height="1028" viewBox="0 0 1512 1028" fill="none" xmlns="http://www.w3.org/2000/svg">
<path d="M599 91.5737L699.588 24L746.011 27.5449L835 304.957L726.67 401L599 91.5737Z" fill="#FF93C8"/>
<path d="M1396 251.5L1183.5 343L1107 560.5L1165 846.5L1513 1028V388L1396 251.5Z" fill="#00672E"/>
<path d="M23.3829 567.262L290.124 21.2721L648.796 0.66748L725 294.267L464.425 664.013L228.601 874.154L-1 873.862L-0.943427 694.595L23.3829 567.262Z" fill="#FFE800"/>
<path d="M218 548.5L197.5 730L357.5 898L780.5 928L919 728.5L715.5 510L218 548.5Z" fill="#E31C24"/>
<path d="M493.836 688L311 373.382L395.721 148L634.325 208.26L835 496.098L730.189 679.074L493.836 688Z" fill="#00672E"/>
<path d="M621 468.548L921.437 729H1140.9L1325 368.918L1258.67 70L1000.64 77.3853L893.754 103.219L621 468.548Z" fill="#0F2CCE"/>
</svg>
